<?xml version="1.0" encoding="UTF-8"?>
<!DOCTYPE svg PUBLIC "-//W3C//DTD SVG 1.1//EN" "http://www.w3.org/Graphics/SVG/1.1/DTD/svg11.dtd">
<svg xmlns="http://www.w3.org/2000/svg" version="1.1" width="481px" height="486px" style="shape-rendering:geometricPrecision; text-rendering:geometricPrecision; image-rendering:optimizeQuality; fill-rule:evenodd; clip-rule:evenodd" xmlns:xlink="http://www.w3.org/1999/xlink">
<g><path style="opacity:1" fill="#b36666" d="M 184.5,7.5 C 184.833,49.172 184.5,90.8387 183.5,132.5C 182.893,132.376 182.56,132.043 182.5,131.5C 183.167,90.1667 183.833,48.8333 184.5,7.5 Z"/></g>
<g><path style="opacity:1" fill="#993433" d="M 184.5,7.5 C 222.833,7.5 261.167,7.5 299.5,7.5C 299.333,47.8347 299.5,88.168 300,128.5C 314.637,118.77 329.47,109.437 344.5,100.5C 346.027,100.573 347.027,99.9063 347.5,98.5C 349.822,96.336 352.489,94.6693 355.5,93.5C 357.027,93.573 358.027,92.9063 358.5,91.5C 360.822,89.336 363.489,87.6693 366.5,86.5C 368.027,86.573 369.027,85.9063 369.5,84.5C 371.822,82.336 374.489,80.6693 377.5,79.5C 379.027,79.573 380.027,78.9063 380.5,77.5C 388.516,72.0661 396.683,66.7328 405,61.5C 407.772,65.388 410.272,69.388 412.5,73.5C 412.427,75.0269 413.094,76.0269 414.5,76.5C 414.427,78.0269 415.094,79.0269 416.5,79.5C 416.427,81.0269 417.094,82.0269 418.5,82.5C 418.427,84.0269 419.094,85.0269 420.5,85.5C 420.427,87.0269 421.094,88.0269 422.5,88.5C 425.996,92.8187 428.996,97.4854 431.5,102.5C 431.427,104.027 432.094,105.027 433.5,105.5C 433.427,107.027 434.094,108.027 435.5,108.5C 435.427,110.027 436.094,111.027 437.5,111.5C 437.427,113.027 438.094,114.027 439.5,114.5C 443.553,119.892 447.22,125.559 450.5,131.5C 450.427,133.027 451.094,134.027 452.5,134.5C 452.427,136.027 453.094,137.027 454.5,137.5C 454.427,139.027 455.094,140.027 456.5,140.5C 456.427,142.027 457.094,143.027 458.5,143.5C 462.637,149.155 466.637,154.988 470.5,161C 430.768,187.061 390.768,212.728 350.5,238C 389.903,262.358 428.903,287.192 467.5,312.5C 468.234,313.708 468.567,315.041 468.5,316.5C 448.28,348.734 427.613,380.734 406.5,412.5C 403.294,413.241 400.627,412.241 398.5,409.5C 398.027,408.094 397.027,407.427 395.5,407.5C 392.489,406.331 389.822,404.664 387.5,402.5C 387.027,401.094 386.027,400.427 384.5,400.5C 371.488,392.997 358.821,384.997 346.5,376.5C 346.027,375.094 345.027,374.427 343.5,374.5C 340.489,373.331 337.822,371.664 335.5,369.5C 335.027,368.094 334.027,367.427 332.5,367.5C 329.489,366.331 326.822,364.664 324.5,362.5C 324.027,361.094 323.027,360.427 321.5,360.5C 318.489,359.331 315.822,357.664 313.5,355.5C 313.027,354.094 312.027,353.427 310.5,353.5C 306.9,351.89 303.566,349.89 300.5,347.5C 300.44,346.957 300.107,346.624 299.5,346.5C 298.5,389.161 298.167,431.828 298.5,474.5C 260.5,474.5 222.5,474.5 184.5,474.5C 184.833,430.828 184.5,387.162 183.5,343.5C 182.893,343.624 182.56,343.957 182.5,344.5C 146.364,367.739 110.03,390.739 73.5,413.5C 51.4318,381.042 29.5985,348.376 8,315.5C 9.41018,312.496 11.9102,310.496 15.5,309.5C 17.0269,309.573 18.0269,308.906 18.5,307.5C 38.154,294.337 58.154,281.67 78.5,269.5C 80.0269,269.573 81.0269,268.906 81.5,267.5C 83.822,265.336 86.4887,263.669 89.5,262.5C 91.0269,262.573 92.0269,261.906 92.5,260.5C 94.822,258.336 97.4887,256.669 100.5,255.5C 102.027,255.573 103.027,254.906 103.5,253.5C 105.822,251.336 108.489,249.669 111.5,248.5C 113.027,248.573 114.027,247.906 114.5,246.5C 118.426,243.193 122.76,240.36 127.5,238C 125.316,236.637 123.316,235.137 121.5,233.5C 121.027,232.094 120.027,231.427 118.5,231.5C 109.228,226.221 100.228,220.554 91.5,214.5C 91.0269,213.094 90.0269,212.427 88.5,212.5C 85.4887,211.331 82.822,209.664 80.5,207.5C 80.0269,206.094 79.0269,205.427 77.5,205.5C 74.4887,204.331 71.822,202.664 69.5,200.5C 69.0269,199.094 68.0269,198.427 66.5,198.5C 63.4887,197.331 60.822,195.664 58.5,193.5C 58.0269,192.094 57.0269,191.427 55.5,191.5C 52.4887,190.331 49.822,188.664 47.5,186.5C 47.0269,185.094 46.0269,184.427 44.5,184.5C 41.4887,183.331 38.822,181.664 36.5,179.5C 36.0269,178.094 35.0269,177.427 33.5,177.5C 24.4674,172.645 15.8007,167.145 7.5,161C 7.72845,160.601 8.06178,160.435 8.5,160.5C 9.90632,160.027 10.573,159.027 10.5,157.5C 11.9063,157.027 12.573,156.027 12.5,154.5C 13.9063,154.027 14.573,153.027 14.5,151.5C 15.9063,151.027 16.573,150.027 16.5,148.5C 19.7803,142.559 23.447,136.892 27.5,131.5C 28.9063,131.027 29.573,130.027 29.5,128.5C 30.9063,128.027 31.573,127.027 31.5,125.5C 32.9063,125.027 33.573,124.027 33.5,122.5C 34.9063,122.027 35.573,121.027 35.5,119.5C 38.0043,114.485 41.0043,109.819 44.5,105.5C 45.9063,105.027 46.573,104.027 46.5,102.5C 47.9063,102.027 48.573,101.027 48.5,99.5C 49.9063,99.0269 50.573,98.0269 50.5,96.5C 51.9063,96.0269 52.573,95.0269 52.5,93.5C 53.9063,93.0269 54.573,92.0269 54.5,90.5C 57.0043,85.4854 60.0043,80.8187 63.5,76.5C 64.9063,76.0269 65.573,75.0269 65.5,73.5C 66.9063,73.0269 67.573,72.0269 67.5,70.5C 67.427,68.9731 68.0937,67.9731 69.5,67.5C 70.9063,67.0269 71.573,66.0269 71.5,64.5C 72.5,64.1667 73.1667,63.5 73.5,62.5C 110.348,84.7534 146.682,107.753 182.5,131.5C 182.56,132.043 182.893,132.376 183.5,132.5C 184.5,90.8387 184.833,49.172 184.5,7.5 Z"/></g>
<g><path style="opacity:1" fill="#ca8e8a" d="M 73.5,62.5 C 73.1667,63.5 72.5,64.1667 71.5,64.5C 71.369,63.7611 71.5357,63.0944 72,62.5C 72.69,61.2617 73.19,61.2617 73.5,62.5 Z"/></g>
<g><path style="opacity:1" fill="#c88b89" d="M 71.5,64.5 C 71.573,66.0269 70.9063,67.0269 69.5,67.5C 69.427,65.9731 70.0937,64.9731 71.5,64.5 Z"/></g>
<g><path style="opacity:1" fill="#cf9b9a" d="M 67.5,70.5 C 67.573,72.0269 66.9063,73.0269 65.5,73.5C 65.427,71.9731 66.0937,70.9731 67.5,70.5 Z"/></g>
<g><path style="opacity:1" fill="#d2a09f" d="M 65.5,73.5 C 65.573,75.0269 64.9063,76.0269 63.5,76.5C 63.427,74.9731 64.0937,73.9731 65.5,73.5 Z"/></g>
<g><path style="opacity:1" fill="#c88b89" d="M 412.5,73.5 C 413.906,73.9731 414.573,74.9731 414.5,76.5C 413.094,76.0269 412.427,75.0269 412.5,73.5 Z"/></g>
<g><path style="opacity:1" fill="#c88b89" d="M 380.5,77.5 C 380.027,78.9063 379.027,79.573 377.5,79.5C 377.973,78.0937 378.973,77.427 380.5,77.5 Z"/></g>
<g><path style="opacity:1" fill="#c88b89" d="M 414.5,76.5 C 415.906,76.9731 416.573,77.9731 416.5,79.5C 415.094,79.0269 414.427,78.0269 414.5,76.5 Z"/></g>
<g><path style="opacity:1" fill="#cf9a98" d="M 416.5,79.5 C 417.906,79.9731 418.573,80.9731 418.5,82.5C 417.094,82.0269 416.427,81.0269 416.5,79.5 Z"/></g>
<g><path style="opacity:1" fill="#cf9b9a" d="M 418.5,82.5 C 419.906,82.9731 420.573,83.9731 420.5,85.5C 419.094,85.0269 418.427,84.0269 418.5,82.5 Z"/></g>
<g><path style="opacity:1" fill="#c88b89" d="M 369.5,84.5 C 369.027,85.9063 368.027,86.573 366.5,86.5C 366.973,85.0937 367.973,84.427 369.5,84.5 Z"/></g>
<g><path style="opacity:1" fill="#d2a09f" d="M 420.5,85.5 C 421.906,85.9731 422.573,86.9731 422.5,88.5C 421.094,88.0269 420.427,87.0269 420.5,85.5 Z"/></g>
<g><path style="opacity:1" fill="#c88b89" d="M 54.5,90.5 C 54.573,92.0269 53.9063,93.0269 52.5,93.5C 52.427,91.9731 53.0937,90.9731 54.5,90.5 Z"/></g>
<g><path style="opacity:1" fill="#c68987" d="M 358.5,91.5 C 358.027,92.9063 357.027,93.573 355.5,93.5C 355.973,92.0937 356.973,91.427 358.5,91.5 Z"/></g>
<g><path style="opacity:1" fill="#c88b89" d="M 52.5,93.5 C 52.573,95.0269 51.9063,96.0269 50.5,96.5C 50.427,94.9731 51.0937,93.9731 52.5,93.5 Z"/></g>
<g><path style="opacity:1" fill="#cf9a98" d="M 50.5,96.5 C 50.573,98.0269 49.9063,99.0269 48.5,99.5C 48.427,97.9731 49.0937,96.9731 50.5,96.5 Z"/></g>
<g><path style="opacity:1" fill="#c68987" d="M 347.5,98.5 C 347.027,99.9063 346.027,100.573 344.5,100.5C 344.973,99.0937 345.973,98.427 347.5,98.5 Z"/></g>
<g><path style="opacity:1" fill="#cf9b9a" d="M 48.5,99.5 C 48.573,101.027 47.9063,102.027 46.5,102.5C 46.427,100.973 47.0937,99.9731 48.5,99.5 Z"/></g>
<g><path style="opacity:1" fill="#d2a09f" d="M 46.5,102.5 C 46.573,104.027 45.9063,105.027 44.5,105.5C 44.427,103.973 45.0937,102.973 46.5,102.5 Z"/></g>
<g><path style="opacity:1" fill="#c88b89" d="M 431.5,102.5 C 432.906,102.973 433.573,103.973 433.5,105.5C 432.094,105.027 431.427,104.027 431.5,102.5 Z"/></g>
<g><path style="opacity:1" fill="#c88b89" d="M 433.5,105.5 C 434.906,105.973 435.573,106.973 435.5,108.5C 434.094,108.027 433.427,107.027 433.5,105.5 Z"/></g>
<g><path style="opacity:1" fill="#cf9a98" d="M 435.5,108.5 C 436.906,108.973 437.573,109.973 437.5,111.5C 436.094,111.027 435.427,110.027 435.5,108.5 Z"/></g>
<g><path style="opacity:1" fill="#cf9b9a" d="M 437.5,111.5 C 438.906,111.973 439.573,112.973 439.5,114.5C 438.094,114.027 437.427,113.027 437.5,111.5 Z"/></g>
<g><path style="opacity:1" fill="#c88b89" d="M 35.5,119.5 C 35.573,121.027 34.9063,122.027 33.5,122.5C 33.427,120.973 34.0937,119.973 35.5,119.5 Z"/></g>
<g><path style="opacity:1" fill="#c88b89" d="M 33.5,122.5 C 33.573,124.027 32.9063,125.027 31.5,125.5C 31.427,123.973 32.0937,122.973 33.5,122.5 Z"/></g>
<g><path style="opacity:1" fill="#cf9b9a" d="M 31.5,125.5 C 31.573,127.027 30.9063,128.027 29.5,128.5C 29.427,126.973 30.0937,125.973 31.5,125.5 Z"/></g>
<g><path style="opacity:1" fill="#cf9b9a" d="M 29.5,128.5 C 29.573,130.027 28.9063,131.027 27.5,131.5C 27.427,129.973 28.0937,128.973 29.5,128.5 Z"/></g>
<g><path style="opacity:1" fill="#c88b89" d="M 450.5,131.5 C 451.906,131.973 452.573,132.973 452.5,134.5C 451.094,134.027 450.427,133.027 450.5,131.5 Z"/></g>
<g><path style="opacity:1" fill="#c88b89" d="M 452.5,134.5 C 453.906,134.973 454.573,135.973 454.5,137.5C 453.094,137.027 452.427,136.027 452.5,134.5 Z"/></g>
<g><path style="opacity:1" fill="#cf9b9a" d="M 454.5,137.5 C 455.906,137.973 456.573,138.973 456.5,140.5C 455.094,140.027 454.427,139.027 454.5,137.5 Z"/></g>
<g><path style="opacity:1" fill="#cf9b9a" d="M 456.5,140.5 C 457.906,140.973 458.573,141.973 458.5,143.5C 457.094,143.027 456.427,142.027 456.5,140.5 Z"/></g>
<g><path style="opacity:1" fill="#c88b89" d="M 16.5,148.5 C 16.573,150.027 15.9063,151.027 14.5,151.5C 14.427,149.973 15.0937,148.973 16.5,148.5 Z"/></g>
<g><path style="opacity:1" fill="#c88b89" d="M 14.5,151.5 C 14.573,153.027 13.9063,154.027 12.5,154.5C 12.427,152.973 13.0937,151.973 14.5,151.5 Z"/></g>
<g><path style="opacity:1" fill="#cf9b9a" d="M 12.5,154.5 C 12.573,156.027 11.9063,157.027 10.5,157.5C 10.427,155.973 11.0937,154.973 12.5,154.5 Z"/></g>
<g><path style="opacity:1" fill="#cf9b9a" d="M 10.5,157.5 C 10.573,159.027 9.90632,160.027 8.5,160.5C 8.42702,158.973 9.09368,157.973 10.5,157.5 Z"/></g>
<g><path style="opacity:1" fill="#cf9a98" d="M 33.5,177.5 C 35.0269,177.427 36.0269,178.094 36.5,179.5C 34.9731,179.573 33.9731,178.906 33.5,177.5 Z"/></g>
<g><path style="opacity:1" fill="#cf9a98" d="M 44.5,184.5 C 46.0269,184.427 47.0269,185.094 47.5,186.5C 45.9731,186.573 44.9731,185.906 44.5,184.5 Z"/></g>
<g><path style="opacity:1" fill="#cf9b9a" d="M 55.5,191.5 C 57.0269,191.427 58.0269,192.094 58.5,193.5C 56.9731,193.573 55.9731,192.906 55.5,191.5 Z"/></g>
<g><path style="opacity:1" fill="#d2a09f" d="M 66.5,198.5 C 68.0269,198.427 69.0269,199.094 69.5,200.5C 67.9731,200.573 66.9731,199.906 66.5,198.5 Z"/></g>
<g><path style="opacity:1" fill="#d2a09f" d="M 77.5,205.5 C 79.0269,205.427 80.0269,206.094 80.5,207.5C 78.9731,207.573 77.9731,206.906 77.5,205.5 Z"/></g>
<g><path style="opacity:1" fill="#d2a09f" d="M 88.5,212.5 C 90.0269,212.427 91.0269,213.094 91.5,214.5C 89.9731,214.573 88.9731,213.906 88.5,212.5 Z"/></g>
<g><path style="opacity:1" fill="#cf9a98" d="M 118.5,231.5 C 120.027,231.427 121.027,232.094 121.5,233.5C 119.973,233.573 118.973,232.906 118.5,231.5 Z"/></g>
<g><path style="opacity:1" fill="#c88b89" d="M 114.5,246.5 C 114.027,247.906 113.027,248.573 111.5,248.5C 111.973,247.094 112.973,246.427 114.5,246.5 Z"/></g>
<g><path style="opacity:1" fill="#c88b89" d="M 103.5,253.5 C 103.027,254.906 102.027,255.573 100.5,255.5C 100.973,254.094 101.973,253.427 103.5,253.5 Z"/></g>
<g><path style="opacity:1" fill="#c68987" d="M 92.5,260.5 C 92.0269,261.906 91.0269,262.573 89.5,262.5C 89.9731,261.094 90.9731,260.427 92.5,260.5 Z"/></g>
<g><path style="opacity:1" fill="#c68987" d="M 81.5,267.5 C 81.0269,268.906 80.0269,269.573 78.5,269.5C 78.9731,268.094 79.9731,267.427 81.5,267.5 Z"/></g>
<g><path style="opacity:1" fill="#c88b89" d="M 18.5,307.5 C 18.0269,308.906 17.0269,309.573 15.5,309.5C 15.9731,308.094 16.9731,307.427 18.5,307.5 Z"/></g>
<g><path style="opacity:1" fill="#cd9391" d="M 467.5,312.5 C 470.884,313.244 471.218,314.577 468.5,316.5C 468.567,315.041 468.234,313.708 467.5,312.5 Z"/></g>
<g><path style="opacity:1" fill="#b36666" d="M 182.5,344.5 C 182.56,343.957 182.893,343.624 183.5,343.5C 184.5,387.162 184.833,430.828 184.5,474.5C 183.833,431.167 183.167,387.833 182.5,344.5 Z"/></g>
<g><path style="opacity:1" fill="#e4cbcb" d="M 300.5,347.5 C 299.833,389.833 299.167,432.167 298.5,474.5C 298.167,431.828 298.5,389.161 299.5,346.5C 300.107,346.624 300.44,346.957 300.5,347.5 Z"/></g>
<g><path style="opacity:1" fill="#cf9a98" d="M 310.5,353.5 C 312.027,353.427 313.027,354.094 313.5,355.5C 311.973,355.573 310.973,354.906 310.5,353.5 Z"/></g>
<g><path style="opacity:1" fill="#cf9b9a" d="M 321.5,360.5 C 323.027,360.427 324.027,361.094 324.5,362.5C 322.973,362.573 321.973,361.906 321.5,360.5 Z"/></g>
<g><path style="opacity:1" fill="#d2a09f" d="M 332.5,367.5 C 334.027,367.427 335.027,368.094 335.5,369.5C 333.973,369.573 332.973,368.906 332.5,367.5 Z"/></g>
<g><path style="opacity:1" fill="#d2a09f" d="M 343.5,374.5 C 345.027,374.427 346.027,375.094 346.5,376.5C 344.973,376.573 343.973,375.906 343.5,374.5 Z"/></g>
<g><path style="opacity:1" fill="#cf9a98" d="M 384.5,400.5 C 386.027,400.427 387.027,401.094 387.5,402.5C 385.973,402.573 384.973,401.906 384.5,400.5 Z"/></g>
<g><path style="opacity:1" fill="#cf9a98" d="M 395.5,407.5 C 397.027,407.427 398.027,408.094 398.5,409.5C 396.973,409.573 395.973,408.906 395.5,407.5 Z"/></g>
</svg>
